<svg xmlns="http://www.w3.org/2000/svg" xmlns:xlink="http://www.w3.org/1999/xlink" width="1587" zoomAndPan="magnify" viewBox="0 0 1190.25 842.249979" height="1123" preserveAspectRatio="xMidYMid meet" version="1.0"><defs><g/><clipPath id="cc9783eec9"><path d="M 0.972656 287 L 928.945312 287 L 928.945312 663.671875 L 0.972656 663.671875 Z M 0.972656 287 " clip-rule="nonzero"/></clipPath><clipPath id="bc23eacc16"><rect x="0" width="929" y="0" height="377"/></clipPath><clipPath id="0e395353da"><path d="M 95 0.183594 L 803 0.183594 L 803 360 L 95 360 Z M 95 0.183594 " clip-rule="nonzero"/></clipPath><clipPath id="e84089b6a8"><rect x="0" width="708" y="0" height="360"/></clipPath><clipPath id="af67041519"><rect x="0" width="929" y="0" height="664"/></clipPath></defs><g transform="matrix(1, 0, 0, 1, 115, 107)"><g clip-path="url(#af67041519)"><path fill="#f2b76e" d="M 737.3125 383.933594 L 737.3125 383.96875 C 737.03125 385.070312 736.746094 386.136719 736.46875 387.242188 C 734.222656 395.925781 731.695312 404.75 728.886719 413.542969 C 717.035156 450.875 696.589844 478.171875 672.324219 507.996094 C 632.425781 557 556.882812 591.167969 497.164062 601.167969 C 492.71875 601.917969 488.234375 602.558594 483.707031 603.089844 C 474.671875 604.191406 465.5625 604.867188 456.378906 605.117188 C 407.65625 606.539062 357.726562 596.148438 314.691406 573.691406 C 308.902344 570.664062 303.238281 567.429688 297.71875 563.976562 C 296.261719 563.050781 294.800781 562.160156 293.382812 561.199219 C 256.621094 537.746094 222.027344 510.164062 196.042969 474.824219 C 173.308594 443.933594 152.238281 401.226562 146.007812 363.003906 C 142.128906 339.121094 141.347656 311.46875 143.726562 284.746094 C 144.933594 271.46875 146.898438 258.445312 149.671875 246.199219 C 150.695312 241.609375 151.875 237.125 153.125 232.785156 C 155.257812 225.558594 157.460938 218.332031 159.808594 211.183594 C 174.367188 167.195312 194.1875 125.339844 224.226562 91.746094 L 224.226562 91.707031 C 231.523438 83.5625 239.351562 75.945312 247.894531 68.859375 C 257.898438 60.566406 268.824219 53.023438 280.78125 46.4375 C 319.574219 25.015625 368.539062 10.5625 417.867188 4.621094 C 425.019531 3.734375 432.140625 3.058594 439.253906 2.554688 C 473.886719 0.0976562 507.980469 1.949219 538.199219 8.640625 C 550.726562 11.417969 562.753906 15.085938 574.285156 19.570312 C 582.902344 22.878906 591.230469 26.6875 599.269531 30.925781 C 641.9375 53.34375 676.640625 87.6875 702.261719 129.257812 C 702.261719 129.257812 702.261719 129.257812 702.300781 129.257812 C 708.8125 139.753906 714.71875 150.679688 720.027344 162.03125 L 720.027344 162.066406 C 721.34375 164.808594 722.589844 167.585938 723.800781 170.359375 C 738.570312 204.136719 751.519531 241.003906 752.621094 278.195312 C 753.691406 313.929688 746.175781 349.484375 737.3125 383.933594 Z M 737.3125 383.933594 " fill-opacity="1" fill-rule="nonzero"/><path fill="#ffffff" d="M 737.3125 383.933594 L 737.3125 383.96875 C 737.03125 385.070312 736.746094 386.136719 736.46875 387.242188 C 734.222656 395.925781 731.695312 404.75 728.886719 413.542969 C 688.066406 334.640625 638.554688 266.984375 581.332031 212 C 567.878906 199.082031 553.539062 187.085938 538.445312 176.160156 C 532.539062 171.820312 526.527344 167.65625 520.40625 163.703125 C 501.582031 151.355469 481.757812 140.535156 461.144531 131.28125 C 454.28125 128.117188 447.304688 125.199219 440.257812 122.421875 C 431.75 119.042969 423.101562 115.945312 414.34375 113.132812 C 406.90625 110.675781 399.398438 108.433594 391.8125 106.40625 C 337.90625 91.742188 280.886719 86.582031 224.226562 91.707031 C 231.523438 83.558594 239.351562 75.941406 247.894531 68.859375 C 301.492188 66.757812 354.984375 73.414062 405.695312 88.148438 C 412.78125 90.175781 419.757812 92.382812 426.699219 94.769531 C 436.664062 98.148438 446.484375 101.816406 456.160156 105.835938 C 463.242188 108.789062 470.257812 111.886719 477.191406 115.160156 C 498.339844 125.125 518.65625 136.65625 537.941406 149.71875 C 544.28125 153.949219 550.511719 158.363281 556.59375 162.992188 C 570.441406 173.382812 583.640625 184.59375 596.128906 196.585938 C 650.195312 248.515625 697.492188 311.332031 737.3125 383.933594 Z M 737.3125 383.933594 " fill-opacity="1" fill-rule="nonzero"/><path fill="#ffffff" d="M 599.269531 30.925781 C 554.316406 52.421875 512.964844 80.964844 477.195312 115.164062 C 471.71875 120.394531 466.34375 125.769531 461.144531 131.285156 C 427.449219 166.804688 399.578125 207.660156 379.46875 252.429688 C 344.339844 330.65625 322.917969 421.230469 315.832031 521.664062 C 314.769531 536.398438 314.734375 551.453125 314.691406 567.359375 L 314.691406 573.695312 C 308.898438 570.667969 303.234375 567.429688 297.714844 563.976562 C 296.257812 563.054688 294.796875 562.164062 293.378906 561.203125 C 293.417969 547.535156 293.550781 533.582031 294.515625 520.167969 C 301.8125 417.246094 323.839844 324.214844 359.996094 243.714844 C 380.007812 199.15625 407.304688 158.300781 440.257812 122.425781 C 445.375 116.765625 450.71875 111.25 456.160156 105.839844 C 490.820312 71.53125 530.757812 42.347656 574.285156 19.570312 C 582.902344 22.882812 591.226562 26.691406 599.269531 30.925781 Z M 599.269531 30.925781 " fill-opacity="1" fill-rule="nonzero"/><path fill="#ffffff" d="M 439.9375 58.007812 C 437.371094 71.566406 432.78125 83.738281 426.695312 94.769531 C 423.097656 101.285156 418.933594 107.40625 414.339844 113.132812 C 386.585938 147.871094 342.671875 168.90625 303.59375 184.101562 C 254.726562 203.066406 204.226562 222.675781 165.898438 260.191406 C 158.027344 267.84375 150.628906 276.0625 143.726562 284.746094 C 144.933594 271.472656 146.898438 258.445312 149.671875 246.203125 C 150.089844 245.777344 150.523438 245.351562 150.949219 244.921875 C 192.445312 204.351562 245.007812 183.957031 295.835938 164.203125 C 329.394531 151.179688 366.765625 133.636719 391.8125 106.410156 C 397.046875 100.75 401.710938 94.699219 405.695312 88.148438 C 411.957031 77.972656 416.554688 66.65625 418.9375 54.019531 C 422.109375 37.472656 421.640625 20.28125 417.867188 4.621094 C 425.019531 3.734375 432.140625 3.058594 439.257812 2.554688 C 443.097656 20.355469 443.417969 39.535156 439.9375 58.007812 Z M 439.9375 58.007812 " fill-opacity="1" fill-rule="nonzero"/><path fill="#ffffff" d="M 483.707031 603.09375 C 498.371094 579.246094 507.339844 551.234375 509.015625 516.109375 C 510.71875 480.628906 505.5625 446.851562 500.578125 414.21875 C 498.054688 397.636719 495.453125 380.480469 493.777344 363.328125 L 493 355.605469 C 488.550781 311.011719 483.988281 264.886719 501.398438 225.917969 C 510.042969 206.554688 522.96875 189.476562 538.445312 176.164062 C 544.175781 171.25 550.261719 166.839844 556.59375 162.996094 C 567.554688 156.378906 579.339844 151.5 591.472656 148.722656 C 611.261719 144.203125 678.703125 131.855469 720.023438 162.035156 C 714.71875 150.683594 708.808594 139.757812 702.296875 129.257812 C 702.257812 129.257812 702.257812 129.257812 702.257812 129.257812 C 659.058594 114.523438 609.304688 122.742188 586.742188 127.90625 C 569.472656 131.855469 552.929688 139.363281 537.945312 149.71875 C 531.789062 153.917969 525.921875 158.617188 520.402344 163.703125 C 504.351562 178.476562 491.035156 196.695312 481.886719 217.195312 C 462.175781 261.359375 467.261719 312.535156 471.746094 357.699219 L 472.488281 365.386719 C 474.230469 383.109375 476.902344 400.546875 479.46875 417.417969 C 484.519531 450.480469 489.289062 481.726562 487.691406 515.113281 C 485.878906 552.871094 474.839844 581.128906 456.371094 605.117188 Z M 483.707031 603.09375 " fill-opacity="1" fill-rule="nonzero"/><g clip-path="url(#cc9783eec9)"><g transform="matrix(1, 0, 0, 1, 0, 287)"><g clip-path="url(#bc23eacc16)"><g fill="#cc2229" fill-opacity="1"><g transform="translate(11.800547, 260.37337)"><g><path d="M 117.40625 -166.765625 C 109.820312 -165.921875 103.5 -167.179688 98.4375 -170.546875 C 93.207031 -173.921875 89.328125 -178.394531 86.796875 -183.96875 C 84.097656 -189.195312 82.75 -195.351562 82.75 -202.4375 C 82.75 -209.351562 84.097656 -215.765625 86.796875 -221.671875 C 89.328125 -227.578125 93.125 -232.722656 98.1875 -237.109375 C 103.070312 -241.492188 108.722656 -245.203125 115.140625 -248.234375 C 121.546875 -251.109375 128.460938 -253.390625 135.890625 -255.078125 C 143.304688 -256.585938 151.488281 -257.679688 160.4375 -258.359375 C 169.375 -258.867188 178.398438 -258.109375 187.515625 -256.078125 C 196.617188 -254.054688 205.390625 -251.613281 213.828125 -248.75 C 222.085938 -245.707031 230.601562 -242.582031 239.375 -239.375 C 243.769531 -237.695312 248.328125 -236.265625 253.046875 -235.078125 C 257.597656 -233.898438 262.320312 -232.890625 267.21875 -232.046875 C 270.925781 -231.367188 274.550781 -231.113281 278.09375 -231.28125 C 281.632812 -231.445312 284.84375 -232.375 287.71875 -234.0625 C 290.582031 -235.75 292.941406 -238.363281 294.796875 -241.90625 C 296.484375 -245.457031 297.582031 -250.179688 298.09375 -256.078125 L 298.09375 -256.59375 C 307.363281 -253.21875 314.109375 -248.410156 318.328125 -242.171875 C 322.378906 -235.753906 324.238281 -229.34375 323.90625 -222.9375 C 323.726562 -219.226562 322.96875 -215.6875 321.625 -212.3125 C 320.101562 -208.769531 317.992188 -205.734375 315.296875 -203.203125 C 312.597656 -200.492188 309.394531 -198.382812 305.6875 -196.875 C 301.800781 -195.351562 297.5 -194.675781 292.78125 -194.84375 C 287.039062 -195.007812 281.21875 -196.359375 275.3125 -198.890625 C 269.238281 -201.253906 263.25 -204.125 257.34375 -207.5 C 254.476562 -209.1875 251.695312 -210.875 249 -212.5625 C 246.132812 -214.082031 243.4375 -215.769531 240.90625 -217.625 C 238.375 -219.3125 236.007812 -220.910156 233.8125 -222.421875 C 231.625 -223.773438 229.515625 -225.128906 227.484375 -226.484375 C 225.460938 -227.660156 223.351562 -228.835938 221.15625 -230.015625 C 218.96875 -231.203125 216.523438 -232.46875 213.828125 -233.8125 C 208.429688 -236.34375 202.695312 -238.707031 196.625 -240.90625 C 190.550781 -243.09375 184.304688 -244.945312 177.890625 -246.46875 C 171.140625 -247.8125 164.898438 -248.484375 159.171875 -248.484375 C 151.578125 -248.484375 144.742188 -247.050781 138.671875 -244.1875 C 132.429688 -241.15625 127.875 -235.925781 125 -228.5 C 123.488281 -224.789062 122.898438 -221.082031 123.234375 -217.375 C 123.398438 -213.65625 124.410156 -210.53125 126.265625 -208 C 128.117188 -205.46875 130.566406 -203.78125 133.609375 -202.9375 C 136.640625 -202.09375 140.351562 -202.6875 144.75 -204.71875 C 145.414062 -198.8125 145.160156 -193.664062 143.984375 -189.28125 C 142.804688 -184.726562 140.953125 -180.847656 138.421875 -177.640625 C 135.890625 -174.429688 132.851562 -171.984375 129.3125 -170.296875 C 125.59375 -168.441406 121.625 -167.265625 117.40625 -166.765625 Z M 39.734375 1.015625 C 30.117188 0.671875 22.101562 -1.1875 15.6875 -4.5625 C 9.28125 -7.757812 4.132812 -11.972656 0.25 -17.203125 C -3.625 -22.429688 -6.320312 -28.421875 -7.84375 -35.171875 C -9.363281 -41.921875 -9.867188 -48.921875 -9.359375 -56.171875 C -8.859375 -63.253906 -7.425781 -70.34375 -5.0625 -77.4375 C -2.863281 -84.351562 0.171875 -90.847656 4.046875 -96.921875 C 7.929688 -102.828125 12.570312 -108.140625 17.96875 -112.859375 C 23.363281 -117.410156 29.601562 -120.785156 36.6875 -122.984375 C 33.988281 -112.859375 32.472656 -104.421875 32.140625 -97.671875 C 31.796875 -90.753906 32.382812 -85.101562 33.90625 -80.71875 C 35.257812 -76.164062 37.367188 -72.878906 40.234375 -70.859375 C 43.097656 -68.660156 46.300781 -67.394531 49.84375 -67.0625 C 53.394531 -66.71875 57.363281 -67.222656 61.75 -68.578125 C 66.132812 -69.921875 70.769531 -71.945312 75.65625 -74.65625 C 80.550781 -77.351562 85.613281 -80.640625 90.84375 -84.515625 C 96.070312 -88.222656 101.382812 -92.269531 106.78125 -96.65625 C 110.664062 -99.863281 114.800781 -103.578125 119.1875 -107.796875 C 123.570312 -111.847656 128.039062 -116.316406 132.59375 -121.203125 L 95.140625 -121.203125 L 108.046875 -132.59375 L 143.21875 -132.59375 C 146.425781 -136.132812 149.632812 -139.675781 152.84375 -143.21875 C 155.875 -146.757812 158.992188 -150.390625 162.203125 -154.109375 C 168.441406 -161.359375 174.257812 -168.101562 179.65625 -174.34375 C 185.0625 -180.59375 189.785156 -185.992188 193.828125 -190.546875 C 198.046875 -195.097656 201.171875 -198.132812 203.203125 -199.65625 L 203.453125 -199.40625 C 211.046875 -204.96875 217.878906 -208.59375 223.953125 -210.28125 C 229.847656 -211.800781 234.90625 -210.113281 239.125 -205.21875 C 235.082031 -204.882812 230.359375 -202.691406 224.953125 -198.640625 C 219.554688 -194.421875 213.65625 -188.851562 207.25 -181.9375 C 200.832031 -175.019531 194.335938 -167.34375 187.765625 -158.90625 C 181.015625 -150.3125 174.347656 -141.457031 167.765625 -132.34375 L 191.296875 -132.34375 C 192.648438 -133.351562 194.171875 -134.453125 195.859375 -135.640625 C 197.546875 -136.816406 199.234375 -137.828125 200.921875 -138.671875 C 202.941406 -139.515625 204.710938 -139.9375 206.234375 -139.9375 C 207.921875 -139.9375 209.609375 -139.34375 211.296875 -138.15625 C 206.910156 -134.789062 202.691406 -131.25 198.640625 -127.53125 C 194.421875 -123.820312 190.625 -119.773438 187.25 -115.390625 C 183.03125 -109.992188 180.921875 -105.1875 180.921875 -100.96875 C 180.753906 -96.582031 182.359375 -93.207031 185.734375 -90.84375 C 188.941406 -88.644531 193.242188 -87.546875 198.640625 -87.546875 L 201.671875 -88.3125 C 198.804688 -83.757812 194.675781 -80.21875 189.28125 -77.6875 C 183.539062 -74.988281 178.140625 -74.226562 173.078125 -75.40625 C 167.179688 -76.925781 163.554688 -79.710938 162.203125 -83.765625 C 160.679688 -87.640625 160.597656 -91.9375 161.953125 -96.65625 C 163.296875 -101.21875 165.40625 -105.773438 168.28125 -110.328125 C 171.144531 -114.710938 174.097656 -118.171875 177.140625 -120.703125 L 159.671875 -120.703125 C 154.109375 -112.609375 148.878906 -105.015625 143.984375 -97.921875 C 139.085938 -90.835938 134.703125 -84.429688 130.828125 -78.703125 C 123.742188 -68.066406 116.570312 -58.023438 109.3125 -48.578125 C 102.0625 -38.960938 94.640625 -30.363281 87.046875 -22.78125 C 79.453125 -15.1875 71.773438 -9.28125 64.015625 -5.0625 C 56.085938 -0.675781 47.992188 1.347656 39.734375 1.015625 Z M 39.734375 1.015625 "/></g></g></g><g fill="#cc2229" fill-opacity="1"><g transform="translate(183.354966, 260.37337)"><g><path d="M 80.71875 -2.28125 C 74.3125 -2.28125 69.421875 -4.300781 66.046875 -8.34375 C 62.671875 -12.394531 61.148438 -17.289062 61.484375 -23.03125 C 58.953125 -19.820312 55.832031 -16.953125 52.125 -14.421875 C 48.25 -11.722656 44.117188 -9.445312 39.734375 -7.59375 C 30.617188 -3.707031 21.675781 -1.765625 12.90625 -1.765625 C 6.664062 -1.941406 2.28125 -3.96875 -0.25 -7.84375 C -2.78125 -11.550781 -4.21875 -16.109375 -4.5625 -21.515625 C -4.894531 -26.910156 -4.21875 -32.644531 -2.53125 -38.71875 C -1.007812 -44.625 1.015625 -49.851562 3.546875 -54.40625 C 7.085938 -60.8125 11.21875 -67.222656 15.9375 -73.640625 C 20.664062 -80.046875 25.726562 -86.203125 31.125 -92.109375 C 35.675781 -97.171875 40.398438 -101.976562 45.296875 -106.53125 C 50.015625 -110.914062 54.65625 -114.878906 59.21875 -118.421875 C 63.769531 -121.960938 68.238281 -125 72.625 -127.53125 C 76.84375 -129.894531 80.722656 -131.5 84.265625 -132.34375 C 88.984375 -133.519531 93.453125 -133.941406 97.671875 -133.609375 C 101.722656 -133.273438 105.351562 -132.175781 108.5625 -130.3125 C 111.59375 -128.457031 114.035156 -125.84375 115.890625 -122.46875 C 117.578125 -119.09375 118.335938 -114.878906 118.171875 -109.828125 L 134.375 -133.109375 L 170.046875 -133.109375 L 114.125 -51.375 C 110.582031 -46.3125 108.472656 -42.429688 107.796875 -39.734375 C 107.117188 -37.203125 107.457031 -35.679688 108.8125 -35.171875 C 109.988281 -34.671875 111.84375 -35.007812 114.375 -36.1875 C 119.4375 -38.375 125.425781 -42.082031 132.34375 -47.3125 C 135.71875 -49.675781 138.835938 -51.957031 141.703125 -54.15625 C 144.398438 -56.34375 146.847656 -58.363281 149.046875 -60.21875 C 150.054688 -61.0625 150.984375 -61.738281 151.828125 -62.25 C 152.503906 -62.757812 153.007812 -63.179688 153.34375 -63.515625 C 149.800781 -57.441406 145.332031 -50.863281 139.9375 -43.78125 C 134.363281 -36.519531 128.375 -29.769531 121.96875 -23.53125 C 115.382812 -17.289062 108.46875 -12.0625 101.21875 -7.84375 C 93.96875 -3.625 86.796875 -1.515625 79.703125 -1.515625 Z M 38.46875 -34.421875 C 42.175781 -32.054688 46.140625 -31.460938 50.359375 -32.640625 C 54.578125 -33.828125 58.625 -35.851562 62.5 -38.71875 C 66.382812 -41.582031 69.925781 -44.867188 73.125 -48.578125 C 76.332031 -52.128906 78.945312 -55.335938 80.96875 -58.203125 L 107.296875 -94.640625 L 107.03125 -94.640625 C 108.050781 -98.015625 108.8125 -101.21875 109.3125 -104.25 C 109.65625 -107.125 109.65625 -109.738281 109.3125 -112.09375 C 108.976562 -114.289062 108.21875 -116.0625 107.03125 -117.40625 C 105.851562 -118.757812 104.082031 -119.519531 101.71875 -119.6875 C 97.84375 -119.851562 94.050781 -119.179688 90.34375 -117.671875 C 86.625 -116.148438 83.078125 -113.957031 79.703125 -111.09375 C 76.160156 -108.21875 72.703125 -105.007812 69.328125 -101.46875 C 65.960938 -97.925781 62.757812 -94.382812 59.71875 -90.84375 C 52.632812 -82.570312 47.148438 -75.234375 43.265625 -68.828125 C 39.222656 -62.421875 36.523438 -56.9375 35.171875 -52.375 C 33.648438 -47.65625 33.3125 -43.863281 34.15625 -41 C 34.832031 -37.957031 36.269531 -35.765625 38.46875 -34.421875 Z M 38.46875 -34.421875 "/></g></g></g><g fill="#cc2229" fill-opacity="1"><g transform="translate(318.220134, 260.37337)"><g><path d="M 36.6875 -91.609375 C 38.539062 -94.804688 40.0625 -97.753906 41.25 -100.453125 C 42.425781 -103.160156 43.097656 -105.773438 43.265625 -108.296875 C 43.441406 -113.191406 41.503906 -118.675781 37.453125 -124.75 L 38.203125 -123.734375 C 44.953125 -127.953125 50.691406 -130.738281 55.421875 -132.09375 C 60.140625 -133.269531 63.929688 -133.4375 66.796875 -132.59375 C 71.191406 -131.25 73.8125 -128.46875 74.65625 -124.25 C 75.320312 -120.03125 74.5625 -114.378906 72.375 -107.296875 C 76.925781 -113.367188 81.984375 -118.597656 87.546875 -122.984375 C 92.953125 -127.367188 98.519531 -130.570312 104.25 -132.59375 C 109.988281 -134.445312 115.640625 -135.039062 121.203125 -134.375 C 126.773438 -133.53125 131.835938 -131.082031 136.390625 -127.03125 C 138.410156 -125.007812 139.929688 -122.5625 140.953125 -119.6875 C 141.796875 -116.65625 141.878906 -112.859375 141.203125 -108.296875 C 140.859375 -106.109375 139.421875 -102.820312 136.890625 -98.4375 C 134.191406 -94.050781 131.15625 -89.160156 127.78125 -83.765625 C 124.238281 -78.359375 120.695312 -72.789062 117.15625 -67.0625 C 113.613281 -61.320312 110.660156 -56.175781 108.296875 -51.625 C 105.941406 -46.726562 104.679688 -42.847656 104.515625 -39.984375 C 104.335938 -36.773438 105.769531 -35.171875 108.8125 -35.171875 C 110.832031 -35.171875 112.859375 -35.757812 114.890625 -36.9375 C 116.910156 -37.957031 118.929688 -39.222656 120.953125 -40.734375 C 121.796875 -41.578125 122.722656 -42.421875 123.734375 -43.265625 C 124.753906 -43.941406 125.6875 -44.703125 126.53125 -45.546875 C 128.382812 -47.234375 130.066406 -48.414062 131.578125 -49.09375 C 129.046875 -45.71875 126.179688 -41.921875 122.984375 -37.703125 C 119.773438 -33.484375 116.398438 -29.351562 112.859375 -25.3125 C 109.148438 -21.09375 105.4375 -17.210938 101.71875 -13.671875 C 98.007812 -9.953125 94.382812 -7 90.84375 -4.8125 C 87.46875 -2.613281 83.753906 -1.265625 79.703125 -0.765625 C 75.660156 -0.253906 71.78125 -0.421875 68.0625 -1.265625 C 62.5 -2.617188 58.535156 -4.644531 56.171875 -7.34375 C 53.640625 -10.039062 52.207031 -13.078125 51.875 -16.453125 C 51.539062 -19.828125 52.046875 -23.453125 53.390625 -27.328125 C 54.578125 -31.035156 56.265625 -34.75 58.453125 -38.46875 C 60.472656 -42.175781 62.75 -45.71875 65.28125 -49.09375 C 67.644531 -52.46875 69.753906 -55.421875 71.609375 -57.953125 L 108.5625 -107.296875 C 111.09375 -110.671875 111.847656 -113.625 110.828125 -116.15625 C 109.648438 -118.507812 107.375 -119.859375 104 -120.203125 C 98.769531 -120.535156 93.707031 -118.847656 88.8125 -115.140625 C 83.757812 -111.421875 77.859375 -104.925781 71.109375 -95.65625 C 64.359375 -86.375 56.175781 -73.972656 46.5625 -58.453125 C 36.945312 -42.765625 24.800781 -23.28125 10.125 0 L -24.796875 0 Z M 36.6875 -91.609375 "/></g></g></g><g fill="#cc2229" fill-opacity="1"><g transform="translate(444.229346, 260.37337)"><g><path d="M 5.5625 -0.765625 C 0.675781 -2.109375 -2.863281 -4.804688 -5.0625 -8.859375 C -7.425781 -12.910156 -7.929688 -18.476562 -6.578125 -25.5625 C -5.734375 -30.113281 -4.21875 -34.664062 -2.03125 -39.21875 C 0.164062 -43.601562 2.695312 -48.078125 5.5625 -52.640625 C 6.914062 -54.828125 8.351562 -57.019531 9.875 -59.21875 C 11.382812 -61.238281 12.898438 -63.347656 14.421875 -65.546875 L 23.03125 -77.171875 L 56.171875 -124.5 L 33.90625 -124.5 L 41.25 -131.84375 L 61.484375 -131.84375 C 73.804688 -149.039062 84.941406 -164.726562 94.890625 -178.90625 C 97.085938 -181.9375 99.195312 -184.972656 101.21875 -188.015625 C 103.238281 -191.046875 105.347656 -194 107.546875 -196.875 C 109.734375 -199.738281 111.757812 -202.601562 113.625 -205.46875 C 115.476562 -208.164062 117.332031 -210.78125 119.1875 -213.3125 L 128.046875 -225.96875 C 129.222656 -227.65625 130.234375 -229.085938 131.078125 -230.265625 C 131.921875 -231.285156 132.507812 -232.128906 132.84375 -232.796875 C 135.375 -231.285156 137.144531 -229.007812 138.15625 -225.96875 C 139 -222.9375 139.757812 -219.898438 140.4375 -216.859375 C 141.113281 -213.648438 142.039062 -210.78125 143.21875 -208.25 C 144.40625 -205.726562 146.429688 -204.128906 149.296875 -203.453125 L 111.59375 -150.8125 L 98.4375 -131.84375 L 125.765625 -131.84375 L 118.421875 -124.5 L 93.125 -124.5 L 60.734375 -77.6875 C 60.054688 -76.507812 58.617188 -74.566406 56.421875 -71.859375 C 54.398438 -69.160156 52.296875 -66.210938 50.109375 -63.015625 C 47.910156 -59.804688 45.882812 -56.515625 44.03125 -53.140625 C 42.007812 -49.597656 40.578125 -46.394531 39.734375 -43.53125 C 38.710938 -40.65625 38.539062 -38.207031 39.21875 -36.1875 C 39.726562 -34.164062 41.414062 -32.984375 44.28125 -32.640625 C 46.976562 -32.304688 50.1875 -32.726562 53.90625 -33.90625 C 57.445312 -34.914062 61.238281 -36.4375 65.28125 -38.46875 C 69.164062 -40.488281 73.128906 -43.015625 77.171875 -46.046875 C 79.035156 -47.398438 80.894531 -48.921875 82.75 -50.609375 C 84.4375 -52.128906 86.125 -53.734375 87.8125 -55.421875 C 82.238281 -44.785156 75.828125 -35.675781 68.578125 -28.09375 C 61.148438 -20.332031 53.640625 -14.171875 46.046875 -9.609375 C 38.296875 -5.054688 30.875 -2.109375 23.78125 -0.765625 C 16.695312 0.753906 10.625 0.753906 5.5625 -0.765625 Z M 5.5625 -0.765625 "/></g></g></g><g fill="#cc2229" fill-opacity="1"><g transform="translate(521.656683, 260.37337)"><g><path d="M 80.71875 -2.28125 C 74.3125 -2.28125 69.421875 -4.300781 66.046875 -8.34375 C 62.671875 -12.394531 61.148438 -17.289062 61.484375 -23.03125 C 58.953125 -19.820312 55.832031 -16.953125 52.125 -14.421875 C 48.25 -11.722656 44.117188 -9.445312 39.734375 -7.59375 C 30.617188 -3.707031 21.675781 -1.765625 12.90625 -1.765625 C 6.664062 -1.941406 2.28125 -3.96875 -0.25 -7.84375 C -2.78125 -11.550781 -4.21875 -16.109375 -4.5625 -21.515625 C -4.894531 -26.910156 -4.21875 -32.644531 -2.53125 -38.71875 C -1.007812 -44.625 1.015625 -49.851562 3.546875 -54.40625 C 7.085938 -60.8125 11.21875 -67.222656 15.9375 -73.640625 C 20.664062 -80.046875 25.726562 -86.203125 31.125 -92.109375 C 35.675781 -97.171875 40.398438 -101.976562 45.296875 -106.53125 C 50.015625 -110.914062 54.65625 -114.878906 59.21875 -118.421875 C 63.769531 -121.960938 68.238281 -125 72.625 -127.53125 C 76.84375 -129.894531 80.722656 -131.5 84.265625 -132.34375 C 88.984375 -133.519531 93.453125 -133.941406 97.671875 -133.609375 C 101.722656 -133.273438 105.351562 -132.175781 108.5625 -130.3125 C 111.59375 -128.457031 114.035156 -125.84375 115.890625 -122.46875 C 117.578125 -119.09375 118.335938 -114.878906 118.171875 -109.828125 L 134.375 -133.109375 L 170.046875 -133.109375 L 114.125 -51.375 C 110.582031 -46.3125 108.472656 -42.429688 107.796875 -39.734375 C 107.117188 -37.203125 107.457031 -35.679688 108.8125 -35.171875 C 109.988281 -34.671875 111.84375 -35.007812 114.375 -36.1875 C 119.4375 -38.375 125.425781 -42.082031 132.34375 -47.3125 C 135.71875 -49.675781 138.835938 -51.957031 141.703125 -54.15625 C 144.398438 -56.34375 146.847656 -58.363281 149.046875 -60.21875 C 150.054688 -61.0625 150.984375 -61.738281 151.828125 -62.25 C 152.503906 -62.757812 153.007812 -63.179688 153.34375 -63.515625 C 149.800781 -57.441406 145.332031 -50.863281 139.9375 -43.78125 C 134.363281 -36.519531 128.375 -29.769531 121.96875 -23.53125 C 115.382812 -17.289062 108.46875 -12.0625 101.21875 -7.84375 C 93.96875 -3.625 86.796875 -1.515625 79.703125 -1.515625 Z M 38.46875 -34.421875 C 42.175781 -32.054688 46.140625 -31.460938 50.359375 -32.640625 C 54.578125 -33.828125 58.625 -35.851562 62.5 -38.71875 C 66.382812 -41.582031 69.925781 -44.867188 73.125 -48.578125 C 76.332031 -52.128906 78.945312 -55.335938 80.96875 -58.203125 L 107.296875 -94.640625 L 107.03125 -94.640625 C 108.050781 -98.015625 108.8125 -101.21875 109.3125 -104.25 C 109.65625 -107.125 109.65625 -109.738281 109.3125 -112.09375 C 108.976562 -114.289062 108.21875 -116.0625 107.03125 -117.40625 C 105.851562 -118.757812 104.082031 -119.519531 101.71875 -119.6875 C 97.84375 -119.851562 94.050781 -119.179688 90.34375 -117.671875 C 86.625 -116.148438 83.078125 -113.957031 79.703125 -111.09375 C 76.160156 -108.21875 72.703125 -105.007812 69.328125 -101.46875 C 65.960938 -97.925781 62.757812 -94.382812 59.71875 -90.84375 C 52.632812 -82.570312 47.148438 -75.234375 43.265625 -68.828125 C 39.222656 -62.421875 36.523438 -56.9375 35.171875 -52.375 C 33.648438 -47.65625 33.3125 -43.863281 34.15625 -41 C 34.832031 -37.957031 36.269531 -35.765625 38.46875 -34.421875 Z M 38.46875 -34.421875 "/></g></g></g><g fill="#cc2229" fill-opacity="1"><g transform="translate(663.607126, 260.37337)"><g><path d="M 52.375 -5.0625 C 44.28125 -1.519531 36.269531 0.0820312 28.34375 -0.25 C 20.414062 -0.59375 14.003906 -2.867188 9.109375 -7.078125 C 4.210938 -11.296875 0.753906 -16.53125 -1.265625 -22.78125 C -3.285156 -28.851562 -3.960938 -35.429688 -3.296875 -42.515625 C -2.785156 -49.597656 -1.007812 -56.257812 2.03125 -62.5 C 4.894531 -68.570312 8.859375 -73.71875 13.921875 -77.9375 C 18.984375 -82.320312 24.882812 -84.597656 31.625 -84.765625 C 34.832031 -84.941406 37.785156 -84.351562 40.484375 -83 C 43.015625 -81.644531 44.957031 -79.957031 46.3125 -77.9375 C 47.65625 -75.75 48.328125 -73.472656 48.328125 -71.109375 C 48.328125 -68.410156 47.484375 -66.132812 45.796875 -64.28125 C 43.609375 -66.800781 40.992188 -67.222656 37.953125 -65.546875 C 34.753906 -63.679688 32.3125 -60.976562 30.625 -57.4375 C 28.59375 -53.21875 28.503906 -49.757812 30.359375 -47.0625 C 32.046875 -44.363281 34.75 -42.765625 38.46875 -42.265625 C 42.007812 -41.585938 46.054688 -42.257812 50.609375 -44.28125 C 55.160156 -46.132812 59.207031 -49.675781 62.75 -54.90625 C 65.789062 -59.289062 68.660156 -65.113281 71.359375 -72.375 C 73.890625 -79.457031 76.082031 -88.566406 77.9375 -99.703125 C 73.21875 -98.179688 68.664062 -97 64.28125 -96.15625 C 59.882812 -95.3125 55.75 -95.0625 51.875 -95.40625 C 47.988281 -95.738281 44.695312 -96.664062 42 -98.1875 C 39.132812 -99.53125 37.113281 -101.640625 35.9375 -104.515625 C 38.96875 -103.835938 42.253906 -103.328125 45.796875 -102.984375 C 49.335938 -102.484375 53.050781 -102.398438 56.9375 -102.734375 C 60.644531 -102.898438 64.441406 -103.40625 68.328125 -104.25 C 72.203125 -105.09375 75.910156 -106.441406 79.453125 -108.296875 C 79.960938 -110.828125 81.144531 -114.035156 83 -117.921875 C 84.6875 -121.628906 86.796875 -125.507812 89.328125 -129.5625 C 91.691406 -133.613281 94.390625 -137.660156 97.421875 -141.703125 C 100.460938 -145.585938 103.582031 -149.046875 106.78125 -152.078125 C 109.820312 -155.117188 112.859375 -157.394531 115.890625 -158.90625 C 118.765625 -160.257812 121.46875 -160.515625 124 -159.671875 C 127.03125 -158.492188 129.050781 -156.890625 130.0625 -154.859375 C 131.070312 -152.671875 131.328125 -150.226562 130.828125 -147.53125 C 130.316406 -144.832031 129.21875 -141.960938 127.53125 -138.921875 C 125.675781 -135.890625 123.566406 -132.851562 121.203125 -129.8125 C 117.660156 -125.257812 113.953125 -121.210938 110.078125 -117.671875 C 106.023438 -113.953125 102.816406 -111.421875 100.453125 -110.078125 L 99.953125 -110.328125 C 99.273438 -106.953125 98.597656 -103.492188 97.921875 -99.953125 C 97.253906 -96.242188 96.582031 -92.445312 95.90625 -88.5625 C 94.382812 -80.632812 92.613281 -72.789062 90.59375 -65.03125 C 88.5625 -57.101562 86.113281 -49.34375 83.25 -41.75 C 80.382812 -34.332031 76.503906 -27.25 71.609375 -20.5 C 66.722656 -13.75 60.3125 -8.601562 52.375 -5.0625 Z M 101.984375 -119.6875 C 109.066406 -123.90625 114.460938 -128.628906 118.171875 -133.859375 C 118.847656 -134.703125 119.691406 -136.132812 120.703125 -138.15625 C 121.546875 -140.1875 122.390625 -142.296875 123.234375 -144.484375 C 123.566406 -145.671875 123.820312 -146.769531 124 -147.78125 C 124.164062 -148.625 124.332031 -149.46875 124.5 -150.3125 C 124.664062 -152 124.242188 -153.007812 123.234375 -153.34375 C 122.054688 -153.507812 120.367188 -152.5 118.171875 -150.3125 C 116.992188 -148.957031 115.8125 -147.523438 114.625 -146.015625 C 113.445312 -144.492188 112.269531 -142.804688 111.09375 -140.953125 L 111.09375 -141.453125 C 108.894531 -138.078125 107.125 -134.617188 105.78125 -131.078125 C 104.257812 -127.367188 102.992188 -123.570312 101.984375 -119.6875 Z M 101.984375 -119.6875 "/></g></g></g><g fill="#cc2229" fill-opacity="1"><g transform="translate(755.204231, 260.37337)"><g><path d="M -22.515625 113.875 C -25.890625 114.71875 -28.925781 114.882812 -31.625 114.375 C -34.5 113.875 -36.945312 112.863281 -38.96875 111.34375 C -41.164062 109.988281 -43.019531 108.21875 -44.53125 106.03125 C -46.050781 104 -47.148438 101.804688 -47.828125 99.453125 C -49.515625 94.890625 -50.101562 89.660156 -49.59375 83.765625 C -49.09375 78.023438 -47.320312 71.953125 -44.28125 65.546875 C -41.414062 59.128906 -36.773438 52.296875 -30.359375 45.046875 C -23.953125 37.785156 -14.757812 30.613281 -2.78125 23.53125 C 8.851562 16.613281 23.695312 10.960938 41.75 6.578125 L 70.859375 -32.890625 C 68.492188 -30.867188 65.203125 -27.582031 60.984375 -23.03125 C 56.597656 -18.300781 51.617188 -13.828125 46.046875 -9.609375 C 40.316406 -5.222656 34.332031 -1.679688 28.09375 1.015625 C 25.050781 2.359375 21.925781 3.117188 18.71875 3.296875 C 15.519531 3.460938 12.570312 3.125 9.875 2.28125 C 7.164062 1.4375 4.800781 0.171875 2.78125 -1.515625 C 0.757812 -3.203125 -0.753906 -5.3125 -1.765625 -7.84375 C -3.796875 -12.570312 -2.867188 -19.40625 1.015625 -28.34375 C 2.359375 -31.039062 3.789062 -33.570312 5.3125 -35.9375 C 6.832031 -38.125 8.265625 -39.976562 9.609375 -41.5 L 54.15625 -99.953125 L 54.15625 -100.203125 C 56.34375 -103.242188 58.28125 -105.941406 59.96875 -108.296875 C 61.65625 -110.660156 62.835938 -112.859375 63.515625 -114.890625 C 64.191406 -116.742188 64.273438 -118.515625 63.765625 -120.203125 C 63.265625 -121.890625 62.082031 -123.660156 60.21875 -125.515625 C 64.101562 -126.691406 67.898438 -127.113281 71.609375 -126.78125 C 75.148438 -126.269531 78.269531 -124.832031 80.96875 -122.46875 C 83.332031 -120.445312 85.101562 -117.75 86.28125 -114.375 C 87.300781 -110.832031 87.390625 -106.53125 86.546875 -101.46875 C 86.035156 -98.601562 84.347656 -94.722656 81.484375 -89.828125 C 78.441406 -84.765625 74.984375 -79.367188 71.109375 -73.640625 C 67.222656 -67.898438 63.34375 -62.160156 59.46875 -56.421875 C 55.582031 -50.523438 52.546875 -45.46875 50.359375 -41.25 C 48.503906 -37.363281 47.742188 -34.578125 48.078125 -32.890625 C 48.410156 -30.703125 49.421875 -29.523438 51.109375 -29.359375 C 54.648438 -28.847656 58.28125 -29.691406 62 -31.890625 C 65.707031 -34.078125 69.332031 -36.859375 72.875 -40.234375 C 76.25 -43.609375 79.367188 -47.234375 82.234375 -51.109375 L 89.078125 -60.734375 C 92.953125 -66.296875 96.914062 -71.863281 100.96875 -77.4375 C 104.84375 -83 108.722656 -88.476562 112.609375 -93.875 C 116.484375 -99.28125 120.445312 -104.765625 124.5 -110.328125 C 128.375 -115.890625 132.253906 -121.457031 136.140625 -127.03125 L 171.8125 -127.03125 C 168.945312 -122.644531 165.742188 -117.921875 162.203125 -112.859375 C 158.660156 -107.628906 154.863281 -101.976562 150.8125 -95.90625 C 142.71875 -83.757812 134.113281 -70.851562 125 -57.1875 C 115.726562 -43.351562 106.03125 -29.097656 95.90625 -14.421875 C 90.84375 -7.003906 85.78125 0.160156 80.71875 7.078125 C 75.65625 14.171875 70.679688 21.085938 65.796875 27.828125 C 64.441406 29.515625 62.921875 31.539062 61.234375 33.90625 C 59.378906 36.4375 57.269531 39.304688 54.90625 42.515625 C 50.1875 49.085938 44.875 56.003906 38.96875 63.265625 C 32.894531 70.679688 26.316406 78.101562 19.234375 85.53125 C 12.148438 92.945312 5.0625 99.101562 -2.03125 104 C -9.113281 109.0625 -15.941406 112.351562 -22.515625 113.875 Z M -25.3125 76.671875 C -22.4375 77.679688 -19.144531 77.175781 -15.4375 75.15625 C -11.894531 73.132812 -8.097656 70.265625 -4.046875 66.546875 C -0.171875 62.835938 3.789062 58.535156 7.84375 53.640625 C 11.726562 48.753906 15.441406 43.945312 18.984375 39.21875 C 20.835938 36.851562 22.609375 34.578125 24.296875 32.390625 C 25.804688 30.191406 27.238281 28.082031 28.59375 26.0625 L 34.921875 17.203125 L 34.671875 16.953125 C 26.398438 19.992188 17.960938 23.453125 9.359375 27.328125 C 0.753906 31.378906 -7.085938 36.523438 -14.171875 42.765625 C -16.359375 44.785156 -18.71875 47.398438 -21.25 50.609375 C -23.957031 53.984375 -26.238281 57.359375 -28.09375 60.734375 C -29.945312 64.273438 -30.789062 67.476562 -30.625 70.34375 C -30.625 73.382812 -28.851562 75.492188 -25.3125 76.671875 Z M -25.3125 76.671875 "/></g></g></g></g></g></g><g clip-path="url(#0e395353da)"><g transform="matrix(1, 0, 0, 1, 95, 0)"><g clip-path="url(#e84089b6a8)"><g fill="#33348e" fill-opacity="1"><g transform="translate(0.920415, 269.320139)"><g><path d="M 17.71875 0 L 17.71875 -189.78125 L 58.203125 -189.78125 L 182.703125 -51.625 L 182.703125 -189.78125 L 223.1875 -189.78125 L 223.1875 0 L 182.703125 0 L 58.203125 -138.15625 L 58.203125 0 Z M 17.71875 0 "/></g></g></g><g fill="#33348e" fill-opacity="1"><g transform="translate(241.821739, 269.320139)"><g><path d="M 17.71875 0 L 17.71875 -189.78125 L 135.125 -189.78125 C 157.726562 -189.78125 175.019531 -185.265625 187 -176.234375 C 198.976562 -167.210938 204.96875 -155.113281 204.96875 -139.9375 C 204.96875 -128.125 201.46875 -118.378906 194.46875 -110.703125 C 187.46875 -103.023438 178.738281 -98.597656 168.28125 -97.421875 C 176.539062 -97.253906 183.957031 -95.101562 190.53125 -90.96875 C 197.113281 -86.832031 202.34375 -81.222656 206.21875 -74.140625 C 210.101562 -67.054688 212.046875 -58.875 212.046875 -49.59375 C 212.046875 -34.414062 206.4375 -22.351562 195.21875 -13.40625 C 184 -4.46875 167.847656 0 146.765625 0 Z M 131.578125 -111.84375 C 141.867188 -111.84375 149.710938 -113.738281 155.109375 -117.53125 C 160.515625 -121.332031 163.21875 -126.859375 163.21875 -134.109375 C 163.21875 -150.140625 152.335938 -158.15625 130.578125 -158.15625 L 55.671875 -158.15625 L 55.671875 -111.84375 Z M 142.21875 -32.140625 C 150.988281 -32.140625 157.859375 -34.203125 162.828125 -38.328125 C 167.804688 -42.460938 170.296875 -48.160156 170.296875 -55.421875 C 170.296875 -63.347656 167.003906 -69.546875 160.421875 -74.015625 C 153.847656 -78.484375 144.570312 -80.71875 132.59375 -80.71875 L 55.671875 -80.71875 L 55.671875 -32.140625 Z M 142.21875 -32.140625 "/></g></g></g><g fill="#33348e" fill-opacity="1"><g transform="translate(458.936587, 269.320139)"><g><path d="M 48.078125 0 L 3.796875 0 L 100.96875 -189.78125 L 142.96875 -189.78125 L 240.90625 0 L 195.859375 0 L 174.09375 -45.546875 L 69.84375 -45.546875 Z M 85.03125 -77.171875 L 158.90625 -77.171875 L 121.96875 -154.609375 Z M 85.03125 -77.171875 "/></g></g></g></g></g></g></g></g></svg>